<?xml version="1.0" encoding="UTF-8"?>
<svg width="34" height="34" version="1.1" viewBox="0 0 700 700" xmlns="http://www.w3.org/2000/svg" >
 <g>
  <path fill='#1C1C25' d="m142.63 52.699c-9.4922-1.4453-18.387 5.0352-19.91 14.531-1.5273 9.543 4.9688 18.52 14.512 20.051l21.238 3.3984 0.007812-0.050782c2.1914 0.45703 3.8516 0.90234 5.3555 1.4258 19.117 6.6211 32.727 23.641 34.984 43.75 0.12891 1.1602 0.20703 2.5156 0.21484 4.2578 0.015625 4.707-0.46875 10.977-1.3867 22.441l-1.4688 18.328h83.824c22.551 0 40.832 18.281 40.832 40.836 0 6.2773-1.4141 12.227-3.9492 17.539 21.68 0.98438 38.949 18.875 38.949 40.793 0 22.551-18.281 40.832-40.832 40.832h-124.21c2.5859 16.016 8.1406 30.016 19.074 41.855 14.27 15.461 32.941 22.078 55.266 25.168 21.543 2.9805 49.156 2.9766 83.508 2.9766h90.246c16.039 0 29.082 0 39.805-0.83594 11.125-0.86719 20.965-2.7031 30.422-7 11.363-5.1641 21.496-12.699 29.711-22.105 6.832-7.8242 11.414-16.719 15.441-27.125 3.8789-10.012 7.6172-22.477 12.215-37.797l0.5-1.6719c7.9258-26.41 14.25-47.492 17.586-64.598 3.4023-17.438 4.2344-33.117-0.85156-47.996-5.8984-17.27-17.055-32.262-31.902-42.879-12.789-9.1445-28.047-12.855-45.73-14.605-17.34-1.7188-39.348-1.7188-66.926-1.7188h-207.13c-6.5781-29.344-27.898-53.527-56.734-63.52-7.9766-2.7617-17.277-4.0898-30.902-6.0312zm259.87 168.97c0-9.668 7.8359-17.5 17.5-17.5h46.668c9.6641 0 17.5 7.832 17.5 17.5 0 9.6641-7.8359 17.5-17.5 17.5h-46.668c-9.6641 0-17.5-7.8359-17.5-17.5z" fill-rule="evenodd"/>
  <path fill='#1C1C25' d="m204.17 466.67c0-28.996 23.504-52.5 52.5-52.5 28.992 0 52.5 23.504 52.5 52.5 0 28.992-23.508 52.5-52.5 52.5-28.996 0-52.5-23.508-52.5-52.5z"/>
  <path fill='#1C1C25' d="m455 414.17c-28.992 0-52.5 23.504-52.5 52.5 0 28.992 23.508 52.5 52.5 52.5s52.5-23.508 52.5-52.5c0-28.996-23.508-52.5-52.5-52.5z"/>
  <path fill='#1C1C25' d="m122.5 221.67c0-9.668 7.8359-17.5 17.5-17.5h140c9.6641 0 17.5 7.832 17.5 17.5 0 9.6641-7.8359 17.5-17.5 17.5h-140c-9.6641 0-17.5-7.8359-17.5-17.5z"/>
  <path fill='#1C1C25' d="m175 262.5c-9.6641 0-17.5 7.8359-17.5 17.5s7.8359 17.5 17.5 17.5h140c9.6641 0 17.5-7.8359 17.5-17.5s-7.8359-17.5-17.5-17.5z"/>
 </g>
</svg>
