<?xml version="1.0" encoding="UTF-8"?>
<svg width="32" height="32" version="1.1" viewBox="0 0 700 700" xmlns="http://www.w3.org/2000/svg">
 <path fill='salmon' d="m428.88 528.36c-206.92-57.227-305.57-151.49-334.95-236.16-13.402-38.602-12.582-75.402-1.1172-106.2 11.602-31.168 34.062-56.121 63.746-70.648 45.664-22.336 108.25-19.875 173.93 23.137 35.387-70.109 88.387-103.55 139.11-107.03 32.957-2.2539 64.891 8.1289 90.523 29.32 25.324 20.934 44.449 52.418 52.148 92.566 16.879 88.027-21.465 219.04-172.21 372.15-3.0039 3.0547-7.3398 4.0156-11.184 2.8555zm149.57-329.05 0.027343-1.0859c0.14453-6.1562-4.7344-11.277-10.895-11.422-6.1562-0.14453-11.277 4.7344-11.422 10.895l-0.027344 1.0859c-0.14453 6.1562 4.7344 11.277 10.895 11.422 6.1562 0.14453 11.277-4.7344 11.422-10.895zm-1.9062-33.09c-4.4102-28.949-15.793-52.238-31.438-68.828-17.02-18.059-39.004-28.176-62.598-29.168-6.1562-0.23828-11.355 4.5625-11.594 10.723-0.23828 6.1562 4.5625 11.355 10.723 11.594 17.672 0.74609 34.254 8.4414 47.199 22.172 12.621 13.387 21.875 32.59 25.562 56.828 0.91406 6.1133 6.6211 10.324 12.73 9.4102 6.1133-0.91406 10.324-6.6211 9.4102-12.73z"/>
</svg>
